# xmcd
#
# Track frame offsets:
#	150
#	18518
#	34671
#	46961
#	66446
#	80731
#	97151
#	112876
#	130751
#	156438
#	170231
#	183811
#
# Disc length: 2627 seconds
#
# Revision: 1
# Processed by: cddbd v1.5.1PL2 Copyright (c) Steve Scherf et al.
# Submitted via: audiograbber 1.83.01
#
DISCID=a30a410c
DTITLE=Zizi Possi - Zizi Possi
DYEAR=1900
DGENRE=
TTITLE0=Asa Morena
TTITLE1=Mais Simples
TTITLE2=Nem Quero Saber
TTITLE3=Per Amore
TTITLE4=Mundo Cruel
TTITLE5=Nunca
TTITLE6=Eu Velejava sem Voce
TTITLE7=Tempos Modernos
TTITLE8=Qualquer Hora
TTITLE9=Se Meu Mundo Cair
TTITLE10=Não da Mais pra Segurar
TTITLE11=Caminhos de Sol
EXTD=
EXTT0=
EXTT1=
EXTT2=
EXTT3=
EXTT4=
EXTT5=
EXTT6=
EXTT7=
EXTT8=
EXTT9=
EXTT10=
EXTT11=
PLAYORDER=
